<?xml version="1.0" encoding="utf-8"?>
<!-- Generator: Adobe Illustrator 25.2.1, SVG Export Plug-In . SVG Version: 6.00 Build 0)  -->
<svg version="1.1" id="Layer_1" xmlns="http://www.w3.org/2000/svg" xmlns:xlink="http://www.w3.org/1999/xlink" x="0px" y="0px"
	 viewBox="0 0 800 800" style="enable-background:new 0 0 800 800;" xml:space="preserve">
<style type="text/css">
	.st0{fill:#FFFFFF;}
	.st1{fill:#77DA7E;}
	.st2{fill:#1D1D1D;}
</style>
<g>
	<path class="st2" d="M384.61,176.69c33.16,26.83,72.88,45.01,102.29,56.02c19.67,7.37,39.31,13.19,53.95,16.77
		c0.45,20.58-0.86,58.62-12.62,103.01c-10.33,38.99-26.6,74.79-48.37,106.42c-24.71,35.9-56.71,66.59-95.24,91.38
		c-38.21-24.59-70-54.98-94.63-90.5c-21.76-31.38-38.09-66.92-48.54-105.63c-12.1-44.82-13.46-83.76-13.03-104.7
		c14.63-3.58,34.25-9.4,53.91-16.76C311.73,221.7,351.44,203.52,384.61,176.69 M384.61,145.88
		c-62.64,61.23-172.29,84.53-178.24,84.53c0,0-26.55,225.64,178.24,346.99c204.78-121.35,178.24-346.99,178.24-346.99
		C556.9,230.41,447.24,207.11,384.61,145.88L384.61,145.88z"/>
</g>
<g>
	<polygon class="st2" points="392.44,617.46 383.56,599.48 374.69,617.46 354.84,620.35 369.2,634.35 365.81,654.12 383.56,644.79 
		401.32,654.12 397.93,634.35 412.29,620.35 	"/>
	<path class="st2" d="M265.53,579.02c3.68-21.05-6.34-52.42-16.36-67.09c-9,14.81-13.2,42.23,3.18,58.52
		c-11.66-5.69-26.58-7.78-54.38-4.94c-4.67,0.46-8.79,1.1-11.67,1.95C207.4,587.34,243.79,597.29,265.53,579.02z"/>
	<path class="st2" d="M230.37,552.76c8.01-18.34,5.78-48.52-2.22-67.01c-14.33,16.44-19.31,40.19-7.61,57.19
		c-17.03-13.4-41.37-18.11-61.71-16.34C174.85,549.61,207.38,564.34,230.37,552.76z"/>
	<path class="st2" d="M202.18,519.8c11.28-15.63,14.78-45.49,9.79-64.04c-15.45,13.06-24.22,35.44-16.63,53.54
		c-15.07-17.61-42.08-25.19-55.49-26.44C151.2,507.48,179.05,525.98,202.18,519.8z"/>
	<path class="st2" d="M181.49,482.9c13.49-12.85,19.93-40.11,17.6-58.76c-15.36,9.69-26.87,26.81-23.72,44.36
		c-9.49-15.9-25.88-25.49-44.57-30.46C137.01,461.33,158.89,484.85,181.49,482.9z"/>
	<path class="st2" d="M167.25,441.34c14.71-9.55,27.67-35.59,27.78-52.8c-21.24,9.41-31.02,27.74-30.11,42.93
		c-5.01-13.06-18.08-29.88-40.03-40.02C127.35,418.39,148.75,439.67,167.25,441.34z"/>
	<path class="st2" d="M160.53,399.56c11.97-5.07,31.76-24.97,32.56-49.38c-22.84,10.74-31.7,28.28-33.03,40.62
		c-2.07-11.51-10.06-29.48-33.74-40.62C126.94,369.14,142.09,394.91,160.53,399.56z"/>
	<path class="st2" d="M159.7,357.21c12.44-4.04,31.29-23.74,31.68-46.85c-10.79,5.25-22.44,14.01-26.62,24.03
		c-2.31,5.54-4.29,11.09-5.04,15.88c-1.15-10.03-7.23-28.01-31.69-39.92C128.41,333.47,147.27,353.18,159.7,357.21z"/>
	<path class="st2" d="M159.7,314.85c10.52-3.25,29.96-21.33,29.96-44.29c-22.92,11.53-28.86,28.98-29.96,38.33
		c-1.11-9.35-7.04-26.8-29.96-38.33C129.74,293.52,149.19,311.59,159.7,314.85z"/>
	<path class="st2" d="M304.84,548.38c-1.1,8.75-0.01,46.08,26.96,64.47c-30.79-10.83-61.51,10.42-67.91,16.49
		c23.18,7.89,58.75,10.07,80.51-10.12C347.76,589.74,324.93,562.38,304.84,548.38z"/>
	<path class="st2" d="M273.44,532.06c-8.54,22.43-3.25,47.38,18.36,60.91c-28.97-9.01-67.6,7.41-70.6,9.04
		c30.03,18.15,63.94,13.91,82.48-3.38C306.69,572.89,285.03,544.27,273.44,532.06z"/>
	<path class="st2" d="M160.88,280.06c16.01-11,12.22-33.94-0.45-49.34C147.95,246.62,144.77,269.32,160.88,280.06z"/>
	<path class="st2" d="M516.85,570.45c16.38-16.29,12.18-43.71,3.18-58.52c-10.01,14.66-20.04,46.03-16.36,67.09
		c21.74,18.27,58.13,8.32,79.23-11.56c-2.89-0.85-7-1.49-11.67-1.95C543.44,562.67,528.51,564.77,516.85,570.45z"/>
	<path class="st2" d="M548.67,542.94c11.7-17,6.72-40.75-7.61-57.19c-8,18.48-10.23,48.67-2.22,67.01
		c23,11.59,55.52-3.14,71.54-26.16C590.04,524.83,565.69,529.54,548.67,542.94z"/>
	<path class="st2" d="M573.86,509.29c7.59-18.1-1.18-40.48-16.63-53.54c-4.99,18.55-1.49,48.41,9.79,64.04
		c23.13,6.19,50.99-12.31,62.32-36.94C615.95,484.11,588.94,491.69,573.86,509.29z"/>
	<path class="st2" d="M593.84,468.49c3.15-17.55-8.36-34.67-23.72-44.36c-2.34,18.66,4.11,45.92,17.6,58.76
		c22.61,1.95,44.48-21.57,50.7-44.87C619.72,443,603.33,452.59,593.84,468.49z"/>
	<path class="st2" d="M601.96,441.34c18.5-1.67,39.9-22.95,42.36-49.9c-21.94,10.14-35.02,26.97-40.03,40.02
		c0.91-15.19-8.87-33.52-30.11-42.93C574.29,405.75,587.25,431.78,601.96,441.34z"/>
	<path class="st2" d="M608.68,399.56c18.44-4.65,33.6-30.42,34.22-49.38c-23.68,11.14-31.67,29.11-33.74,40.62
		c-1.33-12.33-10.2-29.88-33.03-40.62C576.92,374.59,596.7,394.49,608.68,399.56z"/>
	<path class="st2" d="M609.51,357.21c12.44-4.04,31.3-23.74,31.68-46.85c-24.46,11.9-30.54,29.88-31.69,39.92
		c-0.75-4.8-2.73-10.34-5.04-15.88c-4.18-10.02-15.83-18.78-26.62-24.03C578.21,333.47,597.07,353.18,609.51,357.21z"/>
	<path class="st2" d="M609.51,314.85c10.52-3.25,29.96-21.33,29.96-44.29c-22.92,11.53-28.86,28.98-29.96,38.33
		c-1.11-9.35-7.04-26.8-29.96-38.33C579.54,293.52,598.99,311.59,609.51,314.85z"/>
	<path class="st2" d="M437.41,612.85c26.97-18.39,28.06-55.72,26.96-64.47c-20.09,14-42.92,41.36-39.56,70.84
		c21.76,20.18,57.32,18,80.51,10.12C498.92,623.27,468.2,602.02,437.41,612.85z"/>
	<path class="st2" d="M477.41,592.97c21.61-13.53,26.9-38.48,18.36-60.91c-11.58,12.21-33.24,40.83-30.24,66.57
		c18.55,17.29,52.46,21.52,82.48,3.38C545,600.38,506.38,583.95,477.41,592.97z"/>
	<path class="st2" d="M608.33,280.06c16.11-10.74,12.94-33.44,0.45-49.34C596.1,246.12,592.31,269.06,608.33,280.06z"/>
</g>
<path class="st0" d="M496.9,254v68.65h-37.65l-18.1,80.27l27.87,42.73c0,0,56.3-85.39,54.08-183.53L496.9,254z"/>
<path class="st0" d="M271.41,254v68.65h37.65l18.1,80.27l-27.87,42.73c0,0-56.3-85.39-54.08-183.53L271.41,254z"/>
<polygon class="st1" points="289.29,331.62 292.47,341.39 302.75,341.39 294.43,347.44 297.61,357.21 289.29,351.17 280.97,357.21 
	284.15,347.44 275.83,341.39 286.11,341.39 "/>
<polygon class="st1" points="477.17,331.62 480.35,341.39 490.63,341.39 482.31,347.44 485.49,357.21 477.17,351.17 468.85,357.21 
	472.03,347.44 463.71,341.39 473.99,341.39 "/>
<g>
	<path d="M326.66,315.19h-10.23l-1.75-11.71h-12.45l-1.75,11.71h-9.31l10.33-64.54h14.84L326.66,315.19z M303.52,294.72h9.77
		l-4.89-32.64L303.52,294.72z"/>
	<path d="M361.69,265.5v2.3c0,6.64-2.03,10.88-6.55,13c5.44,2.12,7.56,7.01,7.56,13.83v5.25c0,9.96-5.26,15.3-15.4,15.3h-15.95
		v-64.54h15.3C357.18,250.65,361.69,255.54,361.69,265.5z M341.5,259.87v17.06h3.96c3.78,0,6.08-1.66,6.08-6.82v-3.6
		c0-4.61-1.57-6.64-5.16-6.64H341.5z M341.5,286.15v19.82h5.81c3.41,0,5.25-1.57,5.25-6.36v-5.62c0-5.99-1.94-7.84-6.55-7.84H341.5z
		"/>
	<path d="M390,315.19c-0.55-1.66-0.92-2.67-0.92-7.93v-10.14c0-5.99-2.03-8.21-6.64-8.21h-3.5v26.28h-10.14v-64.54h15.3
		c10.51,0,15.03,4.89,15.03,14.84v5.07c0,6.64-2.12,10.97-6.64,13.09c5.07,2.12,6.73,7.01,6.73,13.74v9.96
		c0,3.13,0.09,5.44,1.11,7.84H390z M378.94,259.87v19.82h3.96c3.78,0,6.08-1.66,6.08-6.82v-6.36c0-4.61-1.57-6.64-5.16-6.64H378.94z
		"/>
	<path d="M438.68,315.19h-10.23l-1.75-11.71h-12.45l-1.75,11.71h-9.31l10.33-64.54h14.84L438.68,315.19z M415.54,294.72h9.77
		l-4.89-32.64L415.54,294.72z"/>
	<path d="M452.42,268.45v46.74h-9.13v-64.54h12.72l10.42,38.63v-38.63h9.04v64.54h-10.42L452.42,268.45z"/>
</g>
<g>
	<path d="M344.83,348.55v4.3c0,5.17-2.59,8.13-7.58,8.13s-7.58-2.96-7.58-8.13v-16.81c0-5.17,2.59-8.13,7.58-8.13
		s7.58,2.96,7.58,8.13v3.14h-4.8v-3.46c0-2.31-1.02-3.19-2.63-3.19s-2.63,0.88-2.63,3.19v17.46c0,2.31,1.02,3.14,2.63,3.14
		s2.63-0.83,2.63-3.14v-4.62H344.83z"/>
	<path d="M364.37,360.6h-5.13l-0.88-5.87h-6.24l-0.88,5.87h-4.67l5.17-32.33h7.44L364.37,360.6z M352.78,350.35h4.9L355.23,334
		L352.78,350.35z"/>
	<path d="M371.26,337.19v23.42h-4.57v-32.33h6.37l5.22,19.35v-19.35h4.53v32.33h-5.22L371.26,337.19z"/>
	<path d="M401.19,348.55v4.3c0,5.17-2.59,8.13-7.58,8.13s-7.58-2.96-7.58-8.13v-16.81c0-5.17,2.59-8.13,7.58-8.13
		s7.58,2.96,7.58,8.13v3.14h-4.8v-3.46c0-2.31-1.02-3.19-2.63-3.19c-1.62,0-2.63,0.88-2.63,3.19v17.46c0,2.31,1.02,3.14,2.63,3.14
		c1.62,0,2.63-0.83,2.63-3.14v-4.62H401.19z"/>
	<path d="M409.36,360.6h-5.08v-32.33h5.08v13.86h5.77v-13.86h5.17v32.33h-5.17v-13.86h-5.77V360.6z"/>
	<path d="M440.45,360.6h-5.13l-0.88-5.87h-6.24l-0.88,5.87h-4.67l5.17-32.33h7.44L440.45,360.6z M428.86,350.35h4.9L431.3,334
		L428.86,350.35z"/>
</g>
<g>
	<path d="M335.21,422.92c3.29,0,4.97,1.96,4.97,5.4V429h-3.19v-0.89c0-1.54-0.61-2.12-1.69-2.12c-1.07,0-1.69,0.58-1.69,2.12
		c0,4.42,6.6,5.25,6.6,11.39c0,3.44-1.72,5.4-5.03,5.4c-3.32,0-5.04-1.96-5.04-5.4v-1.32h3.19v1.54c0,1.53,0.68,2.09,1.75,2.09
		c1.08,0,1.75-0.55,1.75-2.09c0-4.42-6.6-5.25-6.6-11.39C330.24,424.89,331.93,422.92,335.21,422.92z"/>
	<path d="M352.16,428.48v2.79c0,3.44-1.66,5.31-5.03,5.31h-1.6v8.07h-3.38v-21.49h4.97C350.5,423.17,352.16,425.04,352.16,428.48z
		 M345.53,426.24v7.28h1.6c1.07,0,1.66-0.49,1.66-2.03v-3.22c0-1.53-0.58-2.03-1.66-2.03H345.53z"/>
	<path d="M353.6,428.33c0-3.44,1.81-5.4,5.13-5.4s5.13,1.96,5.13,5.4v11.18c0,3.44-1.81,5.4-5.13,5.4s-5.13-1.96-5.13-5.4V428.33z
		 M356.98,439.72c0,1.53,0.68,2.12,1.75,2.12s1.75-0.58,1.75-2.12v-11.61c0-1.54-0.68-2.12-1.75-2.12s-1.75,0.58-1.75,2.12V439.72z"
		/>
	<path d="M373.09,444.66c-0.18-0.55-0.31-0.89-0.31-2.64v-3.38c0-2-0.68-2.73-2.21-2.73h-1.17v8.75h-3.38v-21.49h5.1
		c3.5,0,5,1.63,5,4.94v1.69c0,2.21-0.71,3.65-2.21,4.36c1.69,0.71,2.24,2.33,2.24,4.58v3.32c0,1.04,0.03,1.81,0.37,2.61H373.09z
		 M369.41,426.24v6.6h1.32c1.26,0,2.03-0.55,2.03-2.27v-2.12c0-1.54-0.52-2.21-1.72-2.21H369.41z"/>
	<path d="M377.39,423.17h10.44v3.07h-3.53v18.42h-3.38v-18.42h-3.53V423.17z"/>
	<path d="M403.85,436.65v2.86c0,3.44-1.72,5.4-5.04,5.4c-3.32,0-5.03-1.96-5.03-5.4v-11.18c0-3.44,1.72-5.4,5.03-5.4
		c3.32,0,5.04,1.96,5.04,5.4v2.09h-3.19v-2.3c0-1.54-0.68-2.12-1.75-2.12c-1.08,0-1.75,0.58-1.75,2.12v11.61
		c0,1.53,0.67,2.09,1.75,2.09c1.07,0,1.75-0.55,1.75-2.09v-3.07H403.85z"/>
	<path d="M405.91,423.17h3.38v18.42h5.56v3.07h-8.93V423.17z"/>
	<path d="M419.54,423.17v16.58c0,1.54,0.68,2.09,1.75,2.09c1.08,0,1.75-0.55,1.75-2.09v-16.58h3.19v16.36c0,3.44-1.72,5.4-5.04,5.4
		s-5.04-1.96-5.04-5.4v-16.36H419.54z"/>
	<path d="M438.63,428.11v0.77c0,2.21-0.67,3.62-2.18,4.33c1.81,0.71,2.52,2.33,2.52,4.6v1.75c0,3.32-1.75,5.1-5.13,5.1h-5.31v-21.49
		h5.1C437.13,423.17,438.63,424.8,438.63,428.11z M431.91,426.24v5.68h1.32c1.26,0,2.03-0.55,2.03-2.27v-1.2
		c0-1.54-0.52-2.21-1.72-2.21H431.91z M431.91,434.99v6.6h1.93c1.14,0,1.75-0.52,1.75-2.12v-1.87c0-2-0.64-2.61-2.18-2.61H431.91z"
		/>
</g>
</svg>
