<?xml version="1.0" encoding="utf-8"?>
<!-- Generator: Adobe Illustrator 25.2.1, SVG Export Plug-In . SVG Version: 6.00 Build 0)  -->
<svg version="1.1" id="Layer_1" xmlns="http://www.w3.org/2000/svg" xmlns:xlink="http://www.w3.org/1999/xlink" x="0px" y="0px"
	 viewBox="0 0 800 800" style="enable-background:new 0 0 800 800;" xml:space="preserve">
<style type="text/css">
	.st0{fill:#FFFFFF;}
	.st1{fill:#77DA7E;}
	.st2{fill:#1D1D1D;}
</style>
<g>
	<path class="st0" d="M408.45,184.86c33.16,26.83,72.88,45.01,102.29,56.02c19.67,7.37,39.31,13.19,53.95,16.77
		c0.45,20.58-0.86,58.62-12.62,103.01c-10.33,38.99-26.6,74.79-48.37,106.42c-24.71,35.9-56.71,66.59-95.24,91.38
		c-38.21-24.59-70-54.98-94.63-90.5c-21.76-31.38-38.09-66.92-48.54-105.63c-12.1-44.82-13.46-83.76-13.03-104.7
		c14.63-3.58,34.25-9.4,53.91-16.76C335.57,229.87,375.29,211.69,408.45,184.86 M408.45,154.06
		c-62.64,61.23-172.29,84.53-178.24,84.53c0,0-26.55,225.64,178.24,346.99c204.78-121.35,178.24-346.99,178.24-346.99
		C580.75,238.59,471.09,215.28,408.45,154.06L408.45,154.06z"/>
</g>
<g>
	<polygon class="st0" points="416.29,625.64 407.41,607.65 398.53,625.64 378.68,628.52 393.05,642.52 389.66,662.29 407.41,652.96 
		425.17,662.29 421.78,642.52 436.14,628.52 	"/>
	<path class="st0" d="M289.38,587.19c3.68-21.05-6.34-52.42-16.36-67.09c-9,14.81-13.2,42.23,3.18,58.52
		c-11.66-5.69-26.58-7.78-54.38-4.94c-4.67,0.46-8.79,1.1-11.67,1.95C231.25,595.51,267.64,605.46,289.38,587.19z"/>
	<path class="st0" d="M254.22,560.93c8.01-18.34,5.78-48.52-2.22-67.01c-14.33,16.44-19.31,40.19-7.61,57.19
		c-17.03-13.4-41.37-18.11-61.71-16.34C198.7,557.79,231.22,572.52,254.22,560.93z"/>
	<path class="st0" d="M226.03,527.97c11.28-15.63,14.78-45.49,9.79-64.04c-15.45,13.06-24.22,35.44-16.63,53.54
		c-15.07-17.61-42.08-25.19-55.49-26.44C175.05,515.66,202.9,534.16,226.03,527.97z"/>
	<path class="st0" d="M205.34,491.07c13.49-12.85,19.93-40.11,17.6-58.76c-15.36,9.69-26.87,26.81-23.72,44.36
		c-9.49-15.9-25.88-25.49-44.57-30.46C160.86,469.5,182.74,493.02,205.34,491.07z"/>
	<path class="st0" d="M191.1,449.51c14.71-9.55,27.67-35.59,27.78-52.8c-21.24,9.41-31.02,27.74-30.11,42.93
		c-5.01-13.06-18.08-29.88-40.03-40.02C151.2,426.56,172.6,447.84,191.1,449.51z"/>
	<path class="st0" d="M184.38,407.73c11.97-5.07,31.76-24.97,32.56-49.38c-22.84,10.74-31.7,28.28-33.03,40.62
		c-2.07-11.51-10.06-29.48-33.74-40.62C150.79,377.31,165.94,403.08,184.38,407.73z"/>
	<path class="st0" d="M183.55,365.39c12.44-4.04,31.29-23.74,31.68-46.85c-10.79,5.25-22.44,14.01-26.62,24.03
		c-2.31,5.54-4.29,11.09-5.04,15.88c-1.15-10.03-7.23-28.01-31.69-39.92C152.26,341.65,171.11,361.35,183.55,365.39z"/>
	<path class="st0" d="M183.55,323.02c10.52-3.25,29.96-21.33,29.96-44.29c-22.92,11.53-28.86,28.98-29.96,38.33
		c-1.11-9.35-7.04-26.8-29.96-38.33C153.59,301.69,173.04,319.77,183.55,323.02z"/>
	<path class="st0" d="M328.69,556.56c-1.1,8.75-0.01,46.08,26.96,64.47c-30.79-10.83-61.51,10.42-67.91,16.49
		c23.18,7.89,58.75,10.07,80.51-10.12C371.61,597.91,348.78,570.56,328.69,556.56z"/>
	<path class="st0" d="M297.29,540.23c-8.54,22.43-3.25,47.38,18.36,60.91c-28.97-9.01-67.6,7.41-70.6,9.04
		c30.03,18.15,63.94,13.91,82.48-3.38C330.54,581.07,308.88,552.44,297.29,540.23z"/>
	<path class="st0" d="M184.73,288.23c16.01-11,12.22-33.94-0.45-49.34C171.8,254.79,168.62,277.49,184.73,288.23z"/>
	<path class="st0" d="M540.7,578.63c16.38-16.29,12.18-43.71,3.18-58.52c-10.01,14.66-20.04,46.03-16.36,67.09
		c21.74,18.27,58.13,8.32,79.23-11.56c-2.89-0.85-7-1.49-11.67-1.95C567.29,570.85,552.36,572.94,540.7,578.63z"/>
	<path class="st0" d="M572.51,551.12c11.7-17,6.72-40.75-7.61-57.19c-8,18.48-10.23,48.67-2.22,67.01
		c23,11.59,55.52-3.14,71.54-26.16C613.89,533.01,589.54,537.72,572.51,551.12z"/>
	<path class="st0" d="M597.71,517.47c7.59-18.1-1.18-40.48-16.63-53.54c-4.99,18.55-1.49,48.41,9.79,64.04
		c23.13,6.19,50.99-12.31,62.32-36.94C639.8,492.28,612.79,499.86,597.71,517.47z"/>
	<path class="st0" d="M617.69,476.67c3.15-17.55-8.36-34.67-23.72-44.36c-2.34,18.66,4.11,45.92,17.6,58.76
		c22.61,1.95,44.48-21.57,50.7-44.87C643.57,451.18,627.18,460.77,617.69,476.67z"/>
	<path class="st0" d="M625.81,449.51c18.5-1.67,39.9-22.95,42.36-49.9c-21.94,10.14-35.02,26.97-40.03,40.02
		c0.91-15.19-8.87-33.52-30.11-42.93C598.14,413.93,611.1,439.96,625.81,449.51z"/>
	<path class="st0" d="M632.53,407.73c18.44-4.65,33.6-30.42,34.22-49.38c-23.68,11.14-31.67,29.11-33.74,40.62
		c-1.33-12.33-10.2-29.88-33.03-40.62C600.77,382.76,620.55,402.66,632.53,407.73z"/>
	<path class="st0" d="M633.36,365.39c12.44-4.04,31.3-23.74,31.68-46.85c-24.46,11.9-30.54,29.88-31.69,39.92
		c-0.75-4.8-2.73-10.34-5.04-15.88c-4.18-10.02-15.83-18.78-26.62-24.03C602.06,341.65,620.92,361.35,633.36,365.39z"/>
	<path class="st0" d="M633.36,323.02c10.52-3.25,29.96-21.33,29.96-44.29c-22.92,11.53-28.86,28.98-29.96,38.33
		c-1.11-9.35-7.04-26.8-29.96-38.33C603.39,301.69,622.84,319.77,633.36,323.02z"/>
	<path class="st0" d="M461.26,621.03c26.97-18.39,28.06-55.72,26.96-64.47c-20.09,14-42.92,41.36-39.56,70.84
		c21.76,20.18,57.32,18,80.51,10.12C522.77,631.44,492.05,610.2,461.26,621.03z"/>
	<path class="st0" d="M501.26,601.14c21.61-13.53,26.9-38.48,18.36-60.91c-11.58,12.21-33.24,40.83-30.24,66.57
		c18.55,17.29,52.46,21.52,82.48,3.38C568.85,608.55,530.22,592.13,501.26,601.14z"/>
	<path class="st0" d="M632.18,288.23c16.11-10.74,12.94-33.44,0.45-49.34C619.95,254.3,616.16,277.24,632.18,288.23z"/>
</g>
<path class="st1" d="M520.75,262.18v68.65H483.1L465,411.1l27.87,42.73c0,0,56.3-85.39,54.08-183.53L520.75,262.18z"/>
<path class="st1" d="M295.26,262.18v68.65h37.65l18.1,80.27l-27.87,42.73c0,0-56.3-85.39-54.08-183.53L295.26,262.18z"/>
<polygon class="st0" points="313.14,339.79 316.32,349.57 326.6,349.57 318.28,355.61 321.46,365.39 313.14,359.35 304.82,365.39 
	308,355.61 299.68,349.57 309.96,349.57 "/>
<polygon class="st0" points="501.02,339.79 504.19,349.57 514.48,349.57 506.16,355.61 509.33,365.39 501.02,359.35 492.7,365.39 
	495.88,355.61 487.56,349.57 497.84,349.57 "/>
<g>
	<path class="st0" d="M350.51,323.37h-10.23l-1.75-11.71h-12.45l-1.75,11.71h-9.31l10.33-64.54h14.84L350.51,323.37z M327.37,302.9
		h9.77l-4.89-32.64L327.37,302.9z"/>
	<path class="st0" d="M385.54,273.67v2.3c0,6.64-2.03,10.88-6.55,13c5.44,2.12,7.56,7.01,7.56,13.83v5.25
		c0,9.96-5.26,15.3-15.4,15.3h-15.95v-64.54h15.3C381.03,258.83,385.54,263.72,385.54,273.67z M365.35,268.05v17.06h3.96
		c3.78,0,6.08-1.66,6.08-6.82v-3.6c0-4.61-1.57-6.64-5.16-6.64H365.35z M365.35,294.32v19.82h5.81c3.41,0,5.25-1.57,5.25-6.36v-5.62
		c0-5.99-1.94-7.84-6.55-7.84H365.35z"/>
	<path class="st0" d="M413.85,323.37c-0.55-1.66-0.92-2.67-0.92-7.93V305.3c0-5.99-2.03-8.21-6.64-8.21h-3.5v26.28h-10.14v-64.54
		h15.3c10.51,0,15.03,4.89,15.03,14.84v5.07c0,6.64-2.12,10.97-6.64,13.09c5.07,2.12,6.73,7.01,6.73,13.74v9.96
		c0,3.13,0.09,5.44,1.11,7.84H413.85z M402.79,268.05v19.82h3.96c3.78,0,6.08-1.66,6.08-6.82v-6.36c0-4.61-1.57-6.64-5.16-6.64
		H402.79z"/>
	<path class="st0" d="M462.53,323.37h-10.23l-1.75-11.71H438.1l-1.75,11.71h-9.31l10.33-64.54h14.84L462.53,323.37z M439.39,302.9
		h9.77l-4.89-32.64L439.39,302.9z"/>
	<path class="st0" d="M476.26,276.62v46.74h-9.13v-64.54h12.72l10.42,38.63v-38.63h9.04v64.54H488.9L476.26,276.62z"/>
</g>
<g>
	<path class="st0" d="M368.68,356.72v4.3c0,5.17-2.59,8.13-7.57,8.13s-7.58-2.96-7.58-8.13v-16.81c0-5.17,2.59-8.13,7.58-8.13
		s7.57,2.96,7.57,8.13v3.14h-4.8v-3.46c0-2.31-1.02-3.19-2.63-3.19c-1.62,0-2.63,0.88-2.63,3.19v17.46c0,2.31,1.02,3.14,2.63,3.14
		c1.62,0,2.63-0.83,2.63-3.14v-4.62H368.68z"/>
	<path class="st0" d="M388.22,368.78h-5.13l-0.88-5.87h-6.24l-0.88,5.87h-4.67l5.17-32.33h7.44L388.22,368.78z M376.63,358.52h4.9
		l-2.45-16.35L376.63,358.52z"/>
	<path class="st0" d="M395.1,345.36v23.42h-4.57v-32.33h6.37l5.22,19.35v-19.35h4.53v32.33h-5.22L395.1,345.36z"/>
	<path class="st0" d="M425.04,356.72v4.3c0,5.17-2.59,8.13-7.58,8.13s-7.58-2.96-7.58-8.13v-16.81c0-5.17,2.59-8.13,7.58-8.13
		s7.58,2.96,7.58,8.13v3.14h-4.8v-3.46c0-2.31-1.02-3.19-2.63-3.19c-1.62,0-2.63,0.88-2.63,3.19v17.46c0,2.31,1.02,3.14,2.63,3.14
		c1.62,0,2.63-0.83,2.63-3.14v-4.62H425.04z"/>
	<path class="st0" d="M433.21,368.78h-5.08v-32.33h5.08v13.86h5.77v-13.86h5.17v32.33h-5.17v-13.86h-5.77V368.78z"/>
	<path class="st0" d="M464.3,368.78h-5.13l-0.88-5.87h-6.24l-0.88,5.87h-4.67l5.17-32.33h7.44L464.3,368.78z M452.71,358.52h4.9
		l-2.45-16.35L452.71,358.52z"/>
</g>
<g>
	<path class="st0" d="M359.06,431.1c3.29,0,4.97,1.96,4.97,5.4v0.68h-3.19v-0.89c0-1.54-0.61-2.12-1.69-2.12s-1.69,0.58-1.69,2.12
		c0,4.42,6.6,5.25,6.6,11.39c0,3.44-1.72,5.4-5.03,5.4c-3.32,0-5.04-1.96-5.04-5.4v-1.32h3.19v1.54c0,1.53,0.68,2.09,1.75,2.09
		s1.75-0.55,1.75-2.09c0-4.42-6.6-5.25-6.6-11.39C354.09,433.06,355.78,431.1,359.06,431.1z"/>
	<path class="st0" d="M376.01,436.66v2.79c0,3.44-1.66,5.31-5.03,5.31h-1.6v8.07H366v-21.49h4.97
		C374.35,431.34,376.01,433.22,376.01,436.66z M369.38,434.41v7.28h1.6c1.07,0,1.66-0.49,1.66-2.03v-3.22
		c0-1.53-0.58-2.03-1.66-2.03H369.38z"/>
	<path class="st0" d="M377.45,436.5c0-3.44,1.81-5.4,5.13-5.4c3.32,0,5.13,1.96,5.13,5.4v11.18c0,3.44-1.81,5.4-5.13,5.4
		c-3.32,0-5.13-1.96-5.13-5.4V436.5z M380.83,447.89c0,1.53,0.68,2.12,1.75,2.12c1.07,0,1.75-0.58,1.75-2.12v-11.61
		c0-1.54-0.68-2.12-1.75-2.12c-1.07,0-1.75,0.58-1.75,2.12V447.89z"/>
	<path class="st0" d="M396.94,452.83c-0.18-0.55-0.31-0.89-0.31-2.64v-3.38c0-2-0.68-2.73-2.21-2.73h-1.17v8.75h-3.38v-21.49h5.1
		c3.5,0,5,1.63,5,4.94v1.69c0,2.21-0.71,3.65-2.21,4.36c1.69,0.71,2.24,2.33,2.24,4.58v3.32c0,1.04,0.03,1.81,0.37,2.61H396.94z
		 M393.26,434.41v6.6h1.32c1.26,0,2.03-0.55,2.03-2.27v-2.12c0-1.54-0.52-2.21-1.72-2.21H393.26z"/>
	<path class="st0" d="M401.24,431.34h10.44v3.07h-3.53v18.42h-3.38v-18.42h-3.53V431.34z"/>
	<path class="st0" d="M427.7,444.82v2.86c0,3.44-1.72,5.4-5.04,5.4c-3.32,0-5.03-1.96-5.03-5.4V436.5c0-3.44,1.72-5.4,5.03-5.4
		c3.32,0,5.04,1.96,5.04,5.4v2.09h-3.19v-2.3c0-1.54-0.68-2.12-1.75-2.12c-1.08,0-1.75,0.58-1.75,2.12v11.61
		c0,1.53,0.67,2.09,1.75,2.09c1.07,0,1.75-0.55,1.75-2.09v-3.07H427.7z"/>
	<path class="st0" d="M429.76,431.34h3.38v18.42h5.56v3.07h-8.93V431.34z"/>
	<path class="st0" d="M443.39,431.34v16.58c0,1.54,0.68,2.09,1.75,2.09c1.08,0,1.75-0.55,1.75-2.09v-16.58h3.19v16.36
		c0,3.44-1.72,5.4-5.04,5.4s-5.04-1.96-5.04-5.4v-16.36H443.39z"/>
	<path class="st0" d="M462.48,436.29v0.77c0,2.21-0.67,3.62-2.18,4.33c1.81,0.71,2.52,2.33,2.52,4.6v1.75c0,3.32-1.75,5.1-5.13,5.1
		h-5.31v-21.49h5.1C460.98,431.34,462.48,432.97,462.48,436.29z M455.76,434.41v5.68h1.32c1.26,0,2.03-0.55,2.03-2.27v-1.2
		c0-1.54-0.52-2.21-1.72-2.21H455.76z M455.76,443.16v6.6h1.93c1.14,0,1.75-0.52,1.75-2.12v-1.87c0-2-0.64-2.61-2.18-2.61H455.76z"
		/>
</g>
</svg>
